<svg width="23" height="23" viewBox="0 0 23 23" fill="none" xmlns="http://www.w3.org/2000/svg">
<rect width="23" height="23" rx="5" fill="#3686E3"/>
<path d="M7.94998 5L6 7.59998V16.6999C6 17.0447 6.13696 17.3753 6.38076 17.6191C6.62455 17.8629 6.95521 17.9999 7.29999 17.9999H16.3999C16.7447 17.9999 17.0753 17.8629 17.3191 17.6191C17.5629 17.3753 17.6999 17.0447 17.6999 16.6999V7.59998L15.7499 5H7.94998Z" stroke="white" stroke-width="1.5" stroke-linecap="round" stroke-linejoin="round"/>
<path d="M6 7.60059H17.6999" stroke="white" stroke-width="1.5" stroke-linecap="round" stroke-linejoin="round"/>
<path d="M14.4499 10.2002C14.4499 10.8898 14.176 11.5511 13.6884 12.0387C13.2008 12.5262 12.5395 12.8002 11.8499 12.8002C11.1604 12.8002 10.4991 12.5262 10.0115 12.0387C9.52389 11.5511 9.24997 10.8898 9.24997 10.2002" stroke="white" stroke-width="1.5" stroke-linecap="round" stroke-linejoin="round"/>
</svg>
